# xmcd
#
# Track frame offsets:
# 150
# 19780
# 41289
# 69504
# 106529
# 134615
# 156537
# 177975
# 201207
#
# Disc length: 4235 seconds
#
#
# Revision: 5
# Processed by: cddbd v1.5.2PL0 Copyright (c) Steve Scherf et al.
# Submitted via: FreeRIP 2.80 
#
DISCID=76108909
DTITLE=Ministério Apascentar de Nova Iguaçu - Deus de Promessas
DYEAR=2004
DGENRE=Gospel
TTITLE0=01 - Toda Sorte de Bençãos
TTITLE1=02 - Graças
TTITLE2=03 - Desejo do meu Coração
TTITLE3=04 - Deus de Promessas
TTITLE4=05 - Bendito Eu Serei
TTITLE5=06 - Cidadão dos Céus
TTITLE6=07 - Se a Tua Voz Ouvir
TTITLE7=08 - Te Conhecer
TTITLE8=09 - Ministração Pastor Marcus Gregório
EXTD=
EXTT0=
EXTT1=
EXTT2=
EXTT3=
EXTT4=
EXTT5=
EXTT6=
EXTT7=
EXTT8=
PLAYORDER=
